# xmcd CD database file
#
# Track frame offsets:
#	182
#	32057
#	62120
#	85957
#	104770
#	121520
#	161220
#
# Disc length: 2624 seconds
#
# Revision: 0
# Processed by: cddbd v1.4PL0 Copyright (c) Steve Scherf et al.
# Submitted via: CDex 1.50beta10
#
DISCID=590a3e07
DTITLE=Sixun - Nuit Blanche
DYEAR=1988
DGENRE=Jazz
TTITLE0=4.000 Newport
TTITLE1=Padre
TTITLE2=La Nouvelle Façon de Chiner
TTITLE3=Nuit Blanche
TTITLE4=Le Bal des Vampires
TTITLE5=Sixun Song
TTITLE6=Tabana
EXTD=YEAR: 1988
EXTT0=
EXTT1=
EXTT2=
EXTT3=
EXTT4=
EXTT5=
EXTT6=
PLAYORDER=
